<svg viewBox="0 0 512 512" xmlns="http://www.w3.org/2000/svg" fill-rule="evenodd" clip-rule="evenodd" stroke-linejoin="round" stroke-miterlimit="2"><path d="M506 116v280c0 60.711-49.29 110-110 110H116C55.289 506 6 456.711 6 396V116C6 55.29 55.289 6 116 6h280c60.71 0 110 49.29 110 110z" fill="#fff"/><path d="M353.919 196.834a20.483 20.483 0 003.902-12.023 20.49 20.49 0 00-8.85-16.855c-9.335-6.292-22.138-4.107-28.855 4.926-9.875 13.377-20.336 22.596-32.402 28.177a94.72 94.72 0 01-32.47 7.027 83.338 83.338 0 01-30.979-7.027c-12.608-5.649-23.25-14.8-32.289-28.177a20.766 20.766 0 00-17.046-8.916c-11.384 0-20.752 9.366-20.752 20.752a20.76 20.76 0 003.905 12.116c20.336 29.577 56.353 44.355 60.579 45.756-16.202 11.975-33.894 28.176-41.554 50.004a101 101 0 000 70.43 92.353 92.353 0 0044.355 49.304c22.596 11.298 50.705 11.298 76.057 0 26.776-11.976 43.677-33.894 46.48-58.455 2.824-26.053-9.852-49.304-31.635-59.155-22.595-9.875-47.902-2.825-65.527 18.302a20.582 20.582 0 00-4.429 12.753c0 11.284 9.285 20.571 20.572 20.571a20.582 20.582 0 0016.26-7.972c4.925-6.326 10.551-8.45 16.2-6.326 4.226 2.101 8.451 7.727 7.75 17.602-.7 9.874-9.173 19.003-22.595 25.352-14.077 6.327-29.578 6.327-40.13.7a52.336 52.336 0 01-24.652-27.476 57.08 57.08 0 010-40.83c4.926-13.377 16.902-25.352 38.73-38.729 9.038-5.649 19.025-11.298 28.176-16.201-.633.7 50.072-26.73 71.199-55.63zM254.61 91.199c-26.265 0-47.88 21.615-47.88 47.88 0 26.265 21.615 47.88 47.88 47.88 26.265 0 47.88-21.615 47.88-47.88-.025-26.256-21.624-47.855-47.88-47.88zm0 61.957c-7.68-.06-13.964-6.396-13.964-14.077 0-7.72 6.354-14.077 14.077-14.077s14.077 6.354 14.077 14.077c-.011 7.726-6.374 14.077-14.1 14.077h-.09z" fill-rule="nonzero"/></svg>